<svg xmlns="http://www.w3.org/2000/svg" viewBox="0 0 375 812" fill="none">
  <rect width="375" height="812" fill="#1a1a2e"/>
  <rect x="20" y="50" width="200" height="28" rx="4" fill="#2d2d44"/>
  <circle cx="340" cy="64" r="20" fill="#8b5cf6" opacity="0.2"/>
  <text x="340" y="70" text-anchor="middle" fill="#8b5cf6" font-family="system-ui" font-size="16">R</text>
  <text x="40" y="120" fill="#fff" font-family="system-ui" font-size="22" font-weight="600">Hey Rebecca!</text>
  <text x="40" y="148" fill="#888" font-family="system-ui" font-size="13">Let's crush today's goals</text>
  <rect x="20" y="175" width="335" height="150" rx="20" fill="url(#homeGrad)"/>
  <text x="45" y="210" fill="rgba(255,255,255,0.8)" font-family="system-ui" font-size="11" font-weight="600">TODAY'S WORKOUT</text>
  <text x="45" y="245" fill="#fff" font-family="system-ui" font-size="20" font-weight="bold">Morning Flow</text>
  <text x="45" y="270" fill="rgba(255,255,255,0.9)" font-family="system-ui" font-size="12">20 min · Yoga · Beginner</text>
  <rect x="45" y="290" width="120" height="36" rx="18" fill="rgba(255,255,255,0.25)"/>
  <text x="105" y="314" text-anchor="middle" fill="#fff" font-family="system-ui" font-size="13" font-weight="600">Start</text>
  <rect x="20" y="345" width="160" height="100" rx="16" fill="#2d2d44"/>
  <text x="40" y="375" fill="#8b5cf6" font-family="system-ui" font-size="10" font-weight="600">STREAK</text>
  <text x="40" y="420" fill="#fff" font-family="system-ui" font-size="36" font-weight="bold">12</text>
  <text x="88" y="420" fill="#888" font-family="system-ui" font-size="14">days</text>
  <rect x="195" y="345" width="160" height="100" rx="16" fill="#2d2d44"/>
  <text x="215" y="375" fill="#10b981" font-family="system-ui" font-size="10" font-weight="600">THIS WEEK</text>
  <text x="215" y="420" fill="#fff" font-family="system-ui" font-size="36" font-weight="bold">3/4</text>
  <circle cx="320" cy="400" r="25" fill="#10b981" opacity="0.2"/>
  <text x="30" y="480" fill="#fff" font-family="system-ui" font-size="16" font-weight="600">Quick Start</text>
  <rect x="20" y="500" width="100" height="90" rx="12" fill="#2d2d44"/>
  <text x="70" y="555" text-anchor="middle" fill="#888" font-family="system-ui" font-size="11">HIIT</text>
  <rect x="130" y="500" width="100" height="90" rx="12" fill="#2d2d44"/>
  <text x="180" y="555" text-anchor="middle" fill="#888" font-family="system-ui" font-size="11">Strength</text>
  <rect x="240" y="500" width="115" height="90" rx="12" fill="#2d2d44"/>
  <text x="298" y="555" text-anchor="middle" fill="#888" font-family="system-ui" font-size="11">Stretch</text>
  <text x="30" y="625" fill="#fff" font-family="system-ui" font-size="16" font-weight="600">Recent Activity</text>
  <rect x="20" y="645" width="335" height="60" rx="12" fill="#2d2d44"/>
  <rect x="20" y="715" width="335" height="60" rx="12" fill="#2d2d44"/>
  <defs>
    <linearGradient id="homeGrad" x1="0%" y1="0%" x2="100%" y2="100%">
      <stop offset="0%" style="stop-color:#8b5cf6"/>
      <stop offset="100%" style="stop-color:#6366f1"/>
    </linearGradient>
  </defs>
</svg>
