<svg xmlns="http://www.w3.org/2000/svg" viewBox="0 0 375 812" fill="none">
  <rect width="375" height="812" fill="#1a1a2e"/>
  <rect x="20" y="50" width="40" height="40" rx="20" fill="#2d2d44"/>
  <text x="40" y="76" text-anchor="middle" fill="#888" font-family="system-ui" font-size="16">←</text>
  <text x="187" y="78" text-anchor="middle" fill="#fff" font-family="system-ui" font-size="16" font-weight="600">Workout</text>
  <rect x="20" y="110" width="335" height="250" rx="20" fill="url(#workoutGrad)"/>
  <text x="187" y="180" text-anchor="middle" fill="rgba(255,255,255,0.8)" font-family="system-ui" font-size="12">CURRENT EXERCISE</text>
  <text x="187" y="220" text-anchor="middle" fill="#fff" font-family="system-ui" font-size="24" font-weight="bold">Jumping Jacks</text>
  <text x="187" y="250" text-anchor="middle" fill="rgba(255,255,255,0.9)" font-family="system-ui" font-size="14">30 seconds</text>
  <circle cx="187" cy="310" r="30" fill="rgba(255,255,255,0.2)"/>
  <rect x="175" y="298" width="4" height="24" rx="2" fill="#fff"/>
  <rect x="185" y="298" width="4" height="24" rx="2" fill="#fff"/>
  <rect x="20" y="380" width="335" height="80" rx="16" fill="#2d2d44"/>
  <text x="50" y="415" fill="#fff" font-family="system-ui" font-size="14" font-weight="600">Progress</text>
  <rect x="50" y="435" width="275" height="8" rx="4" fill="#3d3d54"/>
  <rect x="50" y="435" width="110" height="8" rx="4" fill="#8b5cf6"/>
  <text x="300" y="415" fill="#888" font-family="system-ui" font-size="12">4/12</text>
  <text x="30" y="495" fill="#fff" font-family="system-ui" font-size="16" font-weight="600">Up Next</text>
  <rect x="20" y="515" width="335" height="70" rx="12" fill="#2d2d44"/>
  <text x="50" y="555" fill="#fff" font-family="system-ui" font-size="14">Squats</text>
  <text x="305" y="555" fill="#888" font-family="system-ui" font-size="12">15 reps</text>
  <rect x="20" y="595" width="335" height="70" rx="12" fill="#2d2d44"/>
  <text x="50" y="635" fill="#fff" font-family="system-ui" font-size="14">Push-ups</text>
  <text x="305" y="635" fill="#888" font-family="system-ui" font-size="12">10 reps</text>
  <rect x="20" y="675" width="335" height="70" rx="12" fill="#2d2d44"/>
  <text x="50" y="715" fill="#fff" font-family="system-ui" font-size="14">Lunges</text>
  <text x="305" y="715" fill="#888" font-family="system-ui" font-size="12">12 each</text>
  <rect x="20" y="760" width="160" height="45" rx="22" fill="#2d2d44"/>
  <text x="100" y="789" text-anchor="middle" fill="#888" font-family="system-ui" font-size="14">Skip</text>
  <rect x="195" y="760" width="160" height="45" rx="22" fill="#8b5cf6"/>
  <text x="275" y="789" text-anchor="middle" fill="#fff" font-family="system-ui" font-size="14" font-weight="600">Next</text>
  <defs>
    <linearGradient id="workoutGrad" x1="0%" y1="0%" x2="100%" y2="100%">
      <stop offset="0%" style="stop-color:#8b5cf6"/>
      <stop offset="100%" style="stop-color:#6366f1"/>
    </linearGradient>
  </defs>
</svg>
