<svg xmlns="http://www.w3.org/2000/svg" viewBox="0 0 375 812" fill="none">
  <rect width="375" height="812" fill="#1a1a2e"/>
  <text x="187" y="70" text-anchor="middle" fill="#fff" font-family="system-ui" font-size="18" font-weight="600">Progress</text>
  <rect x="20" y="100" width="335" height="180" rx="20" fill="#2d2d44"/>
  <text x="50" y="135" fill="#8b5cf6" font-family="system-ui" font-size="11" font-weight="600">CURRENT STREAK</text>
  <text x="50" y="200" fill="#fff" font-family="system-ui" font-size="64" font-weight="bold">12</text>
  <text x="145" y="200" fill="#888" font-family="system-ui" font-size="20">days</text>
  <text x="50" y="235" fill="#888" font-family="system-ui" font-size="13">Personal best: 21 days</text>
  <circle cx="300" cy="180" r="50" fill="#8b5cf6" opacity="0.2"/>
  <text x="300" y="186" text-anchor="middle" fill="#8b5cf6" font-family="system-ui" font-size="14" font-weight="bold">🔥</text>
  <text x="30" y="315" fill="#fff" font-family="system-ui" font-size="16" font-weight="600">This Week</text>
  <rect x="20" y="335" width="335" height="80" rx="16" fill="#2d2d44"/>
  <circle cx="55" cy="375" r="18" fill="#10b981"/>
  <text x="55" y="381" text-anchor="middle" fill="#fff" font-family="system-ui" font-size="10">M</text>
  <circle cx="102" cy="375" r="18" fill="#10b981"/>
  <text x="102" y="381" text-anchor="middle" fill="#fff" font-family="system-ui" font-size="10">T</text>
  <circle cx="149" cy="375" r="18" fill="#10b981"/>
  <text x="149" y="381" text-anchor="middle" fill="#fff" font-family="system-ui" font-size="10">W</text>
  <circle cx="196" cy="375" r="18" fill="#8b5cf6"/>
  <text x="196" y="381" text-anchor="middle" fill="#fff" font-family="system-ui" font-size="10">T</text>
  <circle cx="243" cy="375" r="18" fill="#3d3d54"/>
  <text x="243" y="381" text-anchor="middle" fill="#888" font-family="system-ui" font-size="10">F</text>
  <circle cx="290" cy="375" r="18" fill="#3d3d54"/>
  <text x="290" y="381" text-anchor="middle" fill="#888" font-family="system-ui" font-size="10">S</text>
  <circle cx="337" cy="375" r="18" fill="#3d3d54"/>
  <text x="337" y="381" text-anchor="middle" fill="#888" font-family="system-ui" font-size="10">S</text>
  <text x="30" y="455" fill="#fff" font-family="system-ui" font-size="16" font-weight="600">Monthly Overview</text>
  <rect x="20" y="475" width="335" height="180" rx="16" fill="#2d2d44"/>
  <polyline points="50,620 90,590 130,600 170,560 210,570 250,530 290,550 330,510" stroke="#8b5cf6" stroke-width="3" fill="none"/>
  <circle cx="330" cy="510" r="6" fill="#8b5cf6"/>
  <text x="50" y="510" fill="#888" font-family="system-ui" font-size="11">Workouts completed</text>
  <text x="30" y="690" fill="#fff" font-family="system-ui" font-size="16" font-weight="600">Achievements</text>
  <rect x="20" y="710" width="100" height="80" rx="12" fill="#2d2d44"/>
  <text x="70" y="760" text-anchor="middle" fill="#f59e0b" font-family="system-ui" font-size="24">🏆</text>
  <rect x="130" y="710" width="100" height="80" rx="12" fill="#2d2d44"/>
  <text x="180" y="760" text-anchor="middle" fill="#10b981" font-family="system-ui" font-size="24">💪</text>
  <rect x="240" y="710" width="115" height="80" rx="12" fill="#2d2d44"/>
  <text x="298" y="760" text-anchor="middle" fill="#8b5cf6" font-family="system-ui" font-size="24">⭐</text>
</svg>
