<svg xmlns="http://www.w3.org/2000/svg" viewBox="0 0 375 812" fill="none">
  <rect width="375" height="812" fill="#1a1a2e"/>
  <text x="187" y="70" text-anchor="middle" fill="#fff" font-family="system-ui" font-size="18" font-weight="600">Schedule</text>
  <rect x="20" y="100" width="335" height="60" rx="12" fill="#2d2d44"/>
  <text x="50" y="138" fill="#fff" font-family="system-ui" font-size="14">January 2024</text>
  <text x="320" y="138" fill="#8b5cf6" font-family="system-ui" font-size="20">→</text>
  <rect x="20" y="175" width="335" height="200" rx="16" fill="#2d2d44"/>
  <text x="55" y="210" text-anchor="middle" fill="#888" font-family="system-ui" font-size="11">S</text>
  <text x="102" y="210" text-anchor="middle" fill="#888" font-family="system-ui" font-size="11">M</text>
  <text x="149" y="210" text-anchor="middle" fill="#888" font-family="system-ui" font-size="11">T</text>
  <text x="196" y="210" text-anchor="middle" fill="#888" font-family="system-ui" font-size="11">W</text>
  <text x="243" y="210" text-anchor="middle" fill="#888" font-family="system-ui" font-size="11">T</text>
  <text x="290" y="210" text-anchor="middle" fill="#888" font-family="system-ui" font-size="11">F</text>
  <text x="337" y="210" text-anchor="middle" fill="#888" font-family="system-ui" font-size="11">S</text>
  <circle cx="102" cy="250" r="15" fill="#8b5cf6" opacity="0.3"/>
  <text x="102" y="255" text-anchor="middle" fill="#fff" font-family="system-ui" font-size="12">8</text>
  <circle cx="196" cy="250" r="15" fill="#8b5cf6" opacity="0.3"/>
  <text x="196" y="255" text-anchor="middle" fill="#fff" font-family="system-ui" font-size="12">10</text>
  <circle cx="290" cy="250" r="15" fill="#8b5cf6" opacity="0.3"/>
  <text x="290" y="255" text-anchor="middle" fill="#fff" font-family="system-ui" font-size="12">12</text>
  <circle cx="149" cy="290" r="15" fill="#8b5cf6"/>
  <text x="149" y="295" text-anchor="middle" fill="#fff" font-family="system-ui" font-size="12">16</text>
  <text x="55" y="255" text-anchor="middle" fill="#666" font-family="system-ui" font-size="12">7</text>
  <text x="149" y="255" text-anchor="middle" fill="#888" font-family="system-ui" font-size="12">9</text>
  <text x="243" y="255" text-anchor="middle" fill="#888" font-family="system-ui" font-size="12">11</text>
  <text x="337" y="255" text-anchor="middle" fill="#666" font-family="system-ui" font-size="12">13</text>
  <text x="30" y="410" fill="#fff" font-family="system-ui" font-size="16" font-weight="600">Today's Plan</text>
  <rect x="20" y="430" width="335" height="90" rx="16" fill="#8b5cf6" opacity="0.15"/>
  <rect x="20" y="430" width="4" height="90" rx="2" fill="#8b5cf6"/>
  <text x="50" y="465" fill="#8b5cf6" font-family="system-ui" font-size="11" font-weight="600">7:00 AM</text>
  <text x="50" y="490" fill="#fff" font-family="system-ui" font-size="15" font-weight="600">Morning Yoga</text>
  <text x="50" y="510" fill="#888" font-family="system-ui" font-size="12">20 min · Stretch & Relax</text>
  <rect x="20" y="535" width="335" height="90" rx="16" fill="#2d2d44"/>
  <rect x="20" y="535" width="4" height="90" rx="2" fill="#10b981"/>
  <text x="50" y="570" fill="#10b981" font-family="system-ui" font-size="11" font-weight="600">12:30 PM</text>
  <text x="50" y="595" fill="#fff" font-family="system-ui" font-size="15" font-weight="600">Quick HIIT</text>
  <text x="50" y="615" fill="#888" font-family="system-ui" font-size="12">15 min · High Intensity</text>
  <rect x="20" y="640" width="335" height="90" rx="16" fill="#2d2d44"/>
  <rect x="20" y="640" width="4" height="90" rx="2" fill="#f59e0b"/>
  <text x="50" y="675" fill="#f59e0b" font-family="system-ui" font-size="11" font-weight="600">6:00 PM</text>
  <text x="50" y="700" fill="#fff" font-family="system-ui" font-size="15" font-weight="600">Strength Training</text>
  <text x="50" y="720" fill="#888" font-family="system-ui" font-size="12">30 min · Full Body</text>
  <rect x="20" y="750" width="335" height="50" rx="25" fill="#8b5cf6"/>
  <text x="187" y="782" text-anchor="middle" fill="#fff" font-family="system-ui" font-size="14" font-weight="600">+ Add Workout</text>
</svg>
