<svg xmlns="http://www.w3.org/2000/svg" viewBox="0 0 1200 750" fill="none">
  <rect width="1200" height="750" fill="#1a1a2e"/>
  <rect x="0" y="0" width="80" height="750" fill="#2d2d44"/>
  <circle cx="40" cy="40" r="20" fill="#8b5cf6"/>
  <text x="40" y="46" text-anchor="middle" fill="#fff" font-family="system-ui" font-size="14" font-weight="bold">F</text>
  <rect x="20" y="80" width="40" height="40" rx="8" fill="#8b5cf6" opacity="0.3"/>
  <rect x="20" y="140" width="40" height="40" rx="8" fill="#3d3d54"/>
  <rect x="20" y="200" width="40" height="40" rx="8" fill="#3d3d54"/>
  <rect x="20" y="260" width="40" height="40" rx="8" fill="#3d3d54"/>
  <rect x="100" y="20" width="1080" height="60" rx="12" fill="#2d2d44"/>
  <rect x="120" y="35" width="200" height="30" rx="6" fill="#3d3d54"/>
  <circle cx="1140" cy="50" r="20" fill="#3d3d54"/>
  <text x="120" y="120" fill="#fff" font-family="system-ui" font-size="24" font-weight="bold">Welcome back, Rebecca!</text>
  <text x="120" y="150" fill="#888" font-family="system-ui" font-size="14">You're on a 15-day streak. Keep it up!</text>
  <rect x="100" y="180" width="500" height="250" rx="20" fill="url(#desktopPurpleGrad)"/>
  <text x="140" y="220" fill="rgba(255,255,255,0.8)" font-family="system-ui" font-size="12" font-weight="600">TODAY'S WORKOUT</text>
  <text x="140" y="260" fill="#fff" font-family="system-ui" font-size="28" font-weight="bold">Full Body Strength</text>
  <text x="140" y="295" fill="rgba(255,255,255,0.9)" font-family="system-ui" font-size="14">45 minutes · Intermediate · 12 exercises</text>
  <rect x="140" y="340" width="160" height="50" rx="25" fill="rgba(255,255,255,0.2)"/>
  <text x="220" y="372" text-anchor="middle" fill="#fff" font-family="system-ui" font-size="14" font-weight="600">Start Now</text>
  <rect x="320" y="340" width="140" height="50" rx="25" fill="rgba(255,255,255,0.1)"/>
  <text x="390" y="372" text-anchor="middle" fill="#fff" font-family="system-ui" font-size="14">Preview</text>
  <rect x="620" y="180" width="250" height="120" rx="16" fill="#2d2d44"/>
  <text x="650" y="215" fill="#8b5cf6" font-family="system-ui" font-size="11" font-weight="600">STREAK</text>
  <text x="650" y="270" fill="#fff" font-family="system-ui" font-size="48" font-weight="bold">15</text>
  <text x="720" y="270" fill="#888" font-family="system-ui" font-size="16">days</text>
  <rect x="890" y="180" width="250" height="120" rx="16" fill="#2d2d44"/>
  <text x="920" y="215" fill="#10b981" font-family="system-ui" font-size="11" font-weight="600">THIS WEEK</text>
  <text x="920" y="270" fill="#fff" font-family="system-ui" font-size="48" font-weight="bold">4/5</text>
  <text x="1000" y="270" fill="#888" font-family="system-ui" font-size="16">workouts</text>
  <rect x="620" y="320" width="520" height="110" rx="16" fill="#2d2d44"/>
  <text x="650" y="355" fill="#fff" font-family="system-ui" font-size="16" font-weight="600">Weekly Progress</text>
  <rect x="650" y="380" width="460" height="30" rx="6" fill="#3d3d54"/>
  <rect x="650" y="380" width="320" height="30" rx="6" fill="#8b5cf6" opacity="0.6"/>
  <rect x="100" y="450" width="360" height="280" rx="16" fill="#2d2d44"/>
  <text x="130" y="490" fill="#fff" font-family="system-ui" font-size="18" font-weight="600">Workout Schedule</text>
  <rect x="130" y="520" width="300" height="50" rx="10" fill="#3d3d54"/>
  <rect x="130" y="580" width="300" height="50" rx="10" fill="#8b5cf6" opacity="0.2"/>
  <rect x="130" y="640" width="300" height="50" rx="10" fill="#3d3d54"/>
  <rect x="480" y="450" width="360" height="280" rx="16" fill="#2d2d44"/>
  <text x="510" y="490" fill="#fff" font-family="system-ui" font-size="18" font-weight="600">Activity Overview</text>
  <polyline points="510,650 560,600 620,620 680,560 740,580 800,520" stroke="#8b5cf6" stroke-width="3" fill="none"/>
  <rect x="860" y="450" width="280" height="280" rx="16" fill="#2d2d44"/>
  <text x="890" y="490" fill="#fff" font-family="system-ui" font-size="18" font-weight="600">Achievements</text>
  <circle cx="940" cy="580" r="40" fill="#8b5cf6" opacity="0.2"/>
  <circle cx="1020" cy="580" r="40" fill="#10b981" opacity="0.2"/>
  <circle cx="1100" cy="580" r="40" fill="#f59e0b" opacity="0.2"/>
  <defs>
    <linearGradient id="desktopPurpleGrad" x1="0%" y1="0%" x2="100%" y2="100%">
      <stop offset="0%" style="stop-color:#8b5cf6"/>
      <stop offset="100%" style="stop-color:#6366f1"/>
    </linearGradient>
  </defs>
</svg>
