<svg xmlns="http://www.w3.org/2000/svg" viewBox="0 0 1200 750" fill="none">
  <rect width="1200" height="750" fill="#1a1a2e"/>
  <rect x="0" y="0" width="220" height="750" fill="#2d2d44"/>
  <rect x="20" y="20" width="180" height="40" rx="4" fill="#3d3d54"/>
  <rect x="20" y="80" width="180" height="30" rx="4" fill="#3d3d54"/>
  <rect x="20" y="120" width="180" height="30" rx="4" fill="#3d3d54"/>
  <rect x="20" y="160" width="180" height="30" rx="4" fill="#3d3d54"/>
  <rect x="20" y="200" width="180" height="30" rx="4" fill="#3d3d54"/>
  <rect x="240" y="20" width="940" height="60" rx="8" fill="#2d2d44"/>
  <rect x="240" y="100" width="460" height="300" rx="8" fill="#2d2d44"/>
  <rect x="720" y="100" width="460" height="300" rx="8" fill="#2d2d44"/>
  <rect x="240" y="420" width="300" height="150" rx="8" fill="#2d2d44"/>
  <rect x="560" y="420" width="300" height="150" rx="8" fill="#2d2d44"/>
  <rect x="880" y="420" width="300" height="150" rx="8" fill="#2d2d44"/>
  <rect x="240" y="590" width="940" height="140" rx="8" fill="#2d2d44"/>
  <text x="710" y="400" text-anchor="middle" fill="#666" font-family="system-ui" font-size="16">Basic Wireframe</text>
</svg>
