<svg xmlns="http://www.w3.org/2000/svg" viewBox="0 0 375 812" fill="none">
  <rect width="375" height="812" fill="#1a1a2e"/>
  <rect x="20" y="50" width="335" height="50" rx="8" fill="#2d2d44"/>
  <rect x="20" y="120" width="335" height="150" rx="8" fill="#2d2d44"/>
  <rect x="40" y="140" width="100" height="12" rx="4" fill="#3d3d54"/>
  <rect x="40" y="160" width="200" height="8" rx="4" fill="#3d3d54"/>
  <rect x="40" y="180" width="150" height="8" rx="4" fill="#3d3d54"/>
  <rect x="20" y="290" width="160" height="100" rx="8" fill="#2d2d44"/>
  <rect x="195" y="290" width="160" height="100" rx="8" fill="#2d2d44"/>
  <rect x="20" y="410" width="160" height="100" rx="8" fill="#2d2d44"/>
  <rect x="195" y="410" width="160" height="100" rx="8" fill="#2d2d44"/>
  <rect x="20" y="530" width="335" height="80" rx="8" fill="#2d2d44"/>
  <rect x="20" y="630" width="335" height="80" rx="8" fill="#2d2d44"/>
  <rect x="20" y="730" width="335" height="60" rx="8" fill="#2d2d44"/>
  <text x="187" y="420" text-anchor="middle" fill="#666" font-family="system-ui" font-size="12">Basic Wireframe</text>
</svg>
