<svg xmlns="http://www.w3.org/2000/svg" viewBox="0 0 375 812" fill="none">
  <rect width="375" height="812" fill="#1a1a2e"/>
  <rect x="20" y="50" width="200" height="28" rx="4" fill="#2d2d44"/>
  <circle cx="340" cy="64" r="20" fill="#2d2d44"/>
  <text x="40" y="120" fill="#fff" font-family="system-ui" font-size="20" font-weight="600">Good morning!</text>
  <text x="40" y="145" fill="#888" font-family="system-ui" font-size="12">Ready for today's workout?</text>
  <rect x="20" y="170" width="335" height="140" rx="16" fill="url(#purpleGrad)"/>
  <text x="40" y="210" fill="#fff" font-family="system-ui" font-size="14" font-weight="600">Today's Workout</text>
  <text x="40" y="235" fill="rgba(255,255,255,0.8)" font-family="system-ui" font-size="12">Full Body Strength · 30 min</text>
  <rect x="40" y="260" width="150" height="32" rx="16" fill="rgba(255,255,255,0.2)"/>
  <text x="115" y="281" text-anchor="middle" fill="#fff" font-family="system-ui" font-size="12">Start Workout</text>
  <rect x="20" y="330" width="335" height="100" rx="16" fill="#2d2d44"/>
  <text x="40" y="360" fill="#8b5cf6" font-family="system-ui" font-size="11" font-weight="600">THIS WEEK</text>
  <circle cx="60" cy="400" r="20" fill="#10b981" opacity="0.3"/>
  <circle cx="110" cy="400" r="20" fill="#10b981" opacity="0.3"/>
  <circle cx="160" cy="400" r="20" fill="#10b981"/>
  <circle cx="210" cy="400" r="20" fill="#3d3d54"/>
  <circle cx="260" cy="400" r="20" fill="#3d3d54"/>
  <rect x="20" y="450" width="160" height="120" rx="16" fill="#2d2d44"/>
  <text x="40" y="480" fill="#8b5cf6" font-family="system-ui" font-size="11" font-weight="600">STREAK</text>
  <text x="40" y="530" fill="#fff" font-family="system-ui" font-size="32" font-weight="bold">12</text>
  <text x="40" y="550" fill="#888" font-family="system-ui" font-size="11">days</text>
  <rect x="195" y="450" width="160" height="120" rx="16" fill="#2d2d44"/>
  <text x="215" y="480" fill="#8b5cf6" font-family="system-ui" font-size="11" font-weight="600">CALORIES</text>
  <text x="215" y="530" fill="#fff" font-family="system-ui" font-size="32" font-weight="bold">847</text>
  <text x="215" y="550" fill="#888" font-family="system-ui" font-size="11">burned today</text>
  <rect x="20" y="590" width="335" height="90" rx="16" fill="#2d2d44"/>
  <text x="40" y="620" fill="#fff" font-family="system-ui" font-size="14" font-weight="600">Quick Start</text>
  <rect x="40" y="640" width="80" height="28" rx="14" fill="#8b5cf6" opacity="0.2"/>
  <text x="80" y="659" text-anchor="middle" fill="#8b5cf6" font-family="system-ui" font-size="11">HIIT</text>
  <rect x="130" y="640" width="80" height="28" rx="14" fill="#8b5cf6" opacity="0.2"/>
  <text x="170" y="659" text-anchor="middle" fill="#8b5cf6" font-family="system-ui" font-size="11">Yoga</text>
  <rect x="220" y="640" width="80" height="28" rx="14" fill="#8b5cf6" opacity="0.2"/>
  <text x="260" y="659" text-anchor="middle" fill="#8b5cf6" font-family="system-ui" font-size="11">Stretch</text>
  <rect x="0" y="750" width="375" height="62" fill="#2d2d44"/>
  <defs>
    <linearGradient id="purpleGrad" x1="0%" y1="0%" x2="100%" y2="100%">
      <stop offset="0%" style="stop-color:#8b5cf6"/>
      <stop offset="100%" style="stop-color:#6366f1"/>
    </linearGradient>
  </defs>
</svg>
