<svg xmlns="http://www.w3.org/2000/svg" viewBox="0 0 600 800" fill="none">
  <rect width="600" height="800" fill="#1a1a2e"/>
  <rect x="30" y="40" width="540" height="60" rx="8" fill="#2d2d44"/>
  <rect x="30" y="120" width="260" height="200" rx="8" fill="#2d2d44"/>
  <rect x="310" y="120" width="260" height="200" rx="8" fill="#2d2d44"/>
  <rect x="30" y="340" width="540" height="150" rx="8" fill="#2d2d44"/>
  <rect x="50" y="360" width="200" height="16" rx="4" fill="#3d3d54"/>
  <rect x="50" y="390" width="500" height="12" rx="4" fill="#3d3d54"/>
  <rect x="50" y="410" width="500" height="12" rx="4" fill="#3d3d54"/>
  <rect x="50" y="430" width="400" height="12" rx="4" fill="#3d3d54"/>
  <rect x="30" y="510" width="170" height="120" rx="8" fill="#2d2d44"/>
  <rect x="215" y="510" width="170" height="120" rx="8" fill="#2d2d44"/>
  <rect x="400" y="510" width="170" height="120" rx="8" fill="#2d2d44"/>
  <rect x="30" y="650" width="540" height="100" rx="8" fill="#2d2d44"/>
  <text x="300" y="420" text-anchor="middle" fill="#666" font-family="system-ui" font-size="14">Early Layout</text>
</svg>
