<svg xmlns="http://www.w3.org/2000/svg" viewBox="0 0 600 800" fill="none">
  <rect width="600" height="800" fill="#1a1a2e"/>
  <rect x="30" y="30" width="540" height="60" rx="12" fill="#2d2d44"/>
  <rect x="50" y="45" width="150" height="30" rx="6" fill="#3d3d54"/>
  <circle cx="540" cy="60" r="20" fill="#3d3d54"/>
  <rect x="30" y="110" width="340" height="280" rx="20" fill="url(#tabletPurpleGrad)"/>
  <text x="60" y="150" fill="#fff" font-family="system-ui" font-size="11" font-weight="600" opacity="0.8">NOW PLAYING</text>
  <text x="60" y="190" fill="#fff" font-family="system-ui" font-size="22" font-weight="bold">Morning Yoga</text>
  <text x="60" y="220" fill="rgba(255,255,255,0.8)" font-family="system-ui" font-size="14">20 minutes · Beginner</text>
  <circle cx="200" cy="300" r="50" fill="rgba(255,255,255,0.2)"/>
  <polygon points="185,280 185,320 220,300" fill="#fff"/>
  <rect x="60" y="360" width="280" height="8" rx="4" fill="rgba(255,255,255,0.3)"/>
  <rect x="60" y="360" width="120" height="8" rx="4" fill="#fff"/>
  <rect x="390" y="110" width="180" height="130" rx="16" fill="#2d2d44"/>
  <text x="410" y="145" fill="#8b5cf6" font-family="system-ui" font-size="11" font-weight="600">STREAK</text>
  <text x="410" y="200" fill="#fff" font-family="system-ui" font-size="40" font-weight="bold">15</text>
  <text x="410" y="225" fill="#888" font-family="system-ui" font-size="12">days</text>
  <rect x="390" y="260" width="180" height="130" rx="16" fill="#2d2d44"/>
  <text x="410" y="295" fill="#10b981" font-family="system-ui" font-size="11" font-weight="600">WEEKLY GOAL</text>
  <text x="410" y="350" fill="#fff" font-family="system-ui" font-size="40" font-weight="bold">4/5</text>
  <text x="410" y="375" fill="#888" font-family="system-ui" font-size="12">workouts</text>
  <rect x="30" y="410" width="540" height="160" rx="16" fill="#2d2d44"/>
  <text x="60" y="450" fill="#fff" font-family="system-ui" font-size="16" font-weight="600">Exercise Guide</text>
  <rect x="60" y="480" width="160" height="70" rx="12" fill="#3d3d54"/>
  <rect x="240" y="480" width="160" height="70" rx="12" fill="#3d3d54"/>
  <rect x="420" y="480" width="120" height="70" rx="12" fill="#8b5cf6" opacity="0.3"/>
  <rect x="30" y="590" width="540" height="100" rx="16" fill="#2d2d44"/>
  <text x="60" y="625" fill="#fff" font-family="system-ui" font-size="16" font-weight="600">Up Next</text>
  <rect x="60" y="645" width="480" height="30" rx="8" fill="#3d3d54"/>
  <rect x="30" y="710" width="540" height="70" rx="16" fill="#8b5cf6"/>
  <text x="300" y="752" text-anchor="middle" fill="#fff" font-family="system-ui" font-size="16" font-weight="600">Complete Workout</text>
  <defs>
    <linearGradient id="tabletPurpleGrad" x1="0%" y1="0%" x2="100%" y2="100%">
      <stop offset="0%" style="stop-color:#8b5cf6"/>
      <stop offset="100%" style="stop-color:#6366f1"/>
    </linearGradient>
  </defs>
</svg>
