<svg width="800" height="500" viewBox="0 0 800 500" fill="none" xmlns="http://www.w3.org/2000/svg">
  <rect width="800" height="500" fill="#1a1a24"/>

  <!-- Dashboard mockup -->
  <rect x="150" y="80" width="500" height="340" rx="12" fill="#252532" stroke="#333" stroke-width="2"/>

  <!-- Sidebar -->
  <rect x="150" y="80" width="80" height="340" fill="#1f1f2a"/>
  <circle cx="190" cy="120" r="16" fill="#f97316" opacity="0.2"/>
  <rect x="170" y="160" width="40" height="8" rx="4" fill="#333"/>
  <rect x="170" y="180" width="40" height="8" rx="4" fill="#f97316" opacity="0.5"/>
  <rect x="170" y="200" width="40" height="8" rx="4" fill="#333"/>
  <rect x="170" y="220" width="40" height="8" rx="4" fill="#333"/>

  <!-- Cards -->
  <rect x="250" y="100" width="180" height="100" rx="8" fill="#1f1f2a"/>
  <rect x="450" y="100" width="180" height="100" rx="8" fill="#1f1f2a"/>
  <rect x="250" y="220" width="380" height="180" rx="8" fill="#1f1f2a"/>

  <!-- Chart bars -->
  <rect x="280" y="320" width="30" height="60" rx="4" fill="#f97316" opacity="0.4"/>
  <rect x="330" y="290" width="30" height="90" rx="4" fill="#f97316" opacity="0.6"/>
  <rect x="380" y="260" width="30" height="120" rx="4" fill="#f97316" opacity="0.8"/>
  <rect x="430" y="280" width="30" height="100" rx="4" fill="#f97316"/>
  <rect x="480" y="310" width="30" height="70" rx="4" fill="#f97316" opacity="0.7"/>
  <rect x="530" y="340" width="30" height="40" rx="4" fill="#f97316" opacity="0.5"/>

  <!-- Label -->
  <text x="400" y="470" text-anchor="middle" fill="#8a8a8e" font-family="system-ui" font-size="14">Project Three</text>
</svg>