<svg xmlns="http://www.w3.org/2000/svg" viewBox="0 0 375 812" fill="none">
  <rect width="375" height="812" fill="#1a1a2e"/>
  <rect x="20" y="50" width="120" height="24" rx="4" fill="#2d2d44"/>
  <text x="187" y="120" text-anchor="middle" fill="#fff" font-family="system-ui" font-size="18" font-weight="600">Settings</text>
  <rect x="20" y="160" width="335" height="70" rx="16" fill="#2d2d44"/>
  <circle cx="60" cy="195" r="25" fill="#4a5ee4" opacity="0.3"/>
  <text x="60" y="200" text-anchor="middle" fill="#fff" font-family="system-ui" font-size="14">HU</text>
  <rect x="100" y="180" width="120" height="12" rx="4" fill="#fff"/>
  <rect x="100" y="200" width="80" height="10" rx="4" fill="#888"/>
  <rect x="20" y="250" width="335" height="60" rx="16" fill="#2d2d44"/>
  <rect x="40" y="270" width="100" height="12" rx="4" fill="#fff" opacity="0.8"/>
  <rect x="295" y="270" width="40" height="24" rx="12" fill="#4a5ee4"/>
  <rect x="20" y="330" width="335" height="60" rx="16" fill="#2d2d44"/>
  <rect x="40" y="350" width="120" height="12" rx="4" fill="#fff" opacity="0.8"/>
  <rect x="20" y="410" width="335" height="60" rx="16" fill="#2d2d44"/>
  <rect x="40" y="430" width="80" height="12" rx="4" fill="#fff" opacity="0.8"/>
  <rect x="20" y="490" width="335" height="60" rx="16" fill="#2d2d44"/>
  <rect x="40" y="510" width="140" height="12" rx="4" fill="#fff" opacity="0.8"/>
  <rect x="20" y="570" width="335" height="60" rx="16" fill="#2d2d44"/>
  <rect x="40" y="590" width="100" height="12" rx="4" fill="#fff" opacity="0.8"/>
  <rect x="20" y="700" width="335" height="50" rx="12" fill="#2d2d44"/>
  <text x="187" y="732" text-anchor="middle" fill="#ff6b6b" font-family="system-ui" font-size="14">Sign Out</text>
  <text x="187" y="780" text-anchor="middle" fill="#4a5ee4" font-family="system-ui" font-size="12">Preferences</text>
</svg>
