<svg xmlns="http://www.w3.org/2000/svg" viewBox="0 0 1200 750" fill="none">
  <rect width="1200" height="750" fill="#1a1a2e"/>
  <rect x="0" y="0" width="80" height="750" fill="#2d2d44"/>
  <circle cx="40" cy="40" r="20" fill="#4a5ee4"/>
  <text x="40" y="46" text-anchor="middle" fill="#fff" font-family="system-ui" font-size="12" font-weight="bold">G</text>
  <rect x="20" y="80" width="40" height="40" rx="8" fill="#4a5ee4" opacity="0.3"/>
  <rect x="20" y="140" width="40" height="40" rx="8" fill="#3d3d54"/>
  <rect x="20" y="200" width="40" height="40" rx="8" fill="#3d3d54"/>
  <rect x="20" y="260" width="40" height="40" rx="8" fill="#3d3d54"/>
  <rect x="100" y="20" width="1080" height="70" rx="12" fill="#2d2d44"/>
  <rect x="120" y="40" width="200" height="30" rx="6" fill="#3d3d54"/>
  <circle cx="1140" cy="55" r="20" fill="#3d3d54"/>
  <rect x="100" y="110" width="520" height="280" rx="16" fill="#2d2d44"/>
  <text x="140" y="150" fill="#fff" font-family="system-ui" font-size="16" font-weight="600">Glucose Trends</text>
  <polyline points="140,340 200,280 280,300 360,240 440,260 520,200 560,220" stroke="#4a5ee4" stroke-width="3" fill="none"/>
  <rect x="140" y="360" width="60" height="8" rx="4" fill="#4a5ee4"/>
  <rect x="220" y="360" width="60" height="8" rx="4" fill="#888"/>
  <rect x="640" y="110" width="250" height="130" rx="16" fill="#2d2d44"/>
  <text x="765" y="160" text-anchor="middle" fill="#4a5ee4" font-family="system-ui" font-size="36" font-weight="bold">92%</text>
  <text x="765" y="190" text-anchor="middle" fill="#888" font-family="system-ui" font-size="12">Time in Range</text>
  <rect x="910" y="110" width="270" height="130" rx="16" fill="#2d2d44"/>
  <text x="1045" y="160" text-anchor="middle" fill="#4a5ee4" font-family="system-ui" font-size="36" font-weight="bold">6.1</text>
  <text x="1045" y="190" text-anchor="middle" fill="#888" font-family="system-ui" font-size="12">Estimated A1C</text>
  <rect x="640" y="260" width="540" height="130" rx="16" fill="#2d2d44"/>
  <text x="680" y="300" fill="#fff" font-family="system-ui" font-size="14" font-weight="600">Recent Activity</text>
  <rect x="100" y="410" width="360" height="320" rx="16" fill="#2d2d44"/>
  <text x="140" y="450" fill="#fff" font-family="system-ui" font-size="16" font-weight="600">Weekly Summary</text>
  <rect x="140" y="480" width="280" height="40" rx="8" fill="#3d3d54"/>
  <rect x="140" y="540" width="280" height="40" rx="8" fill="#3d3d54"/>
  <rect x="140" y="600" width="280" height="40" rx="8" fill="#3d3d54"/>
  <rect x="140" y="660" width="280" height="40" rx="8" fill="#3d3d54"/>
  <rect x="480" y="410" width="360" height="320" rx="16" fill="#2d2d44"/>
  <text x="520" y="450" fill="#fff" font-family="system-ui" font-size="16" font-weight="600">Medication Log</text>
  <rect x="860" y="410" width="320" height="320" rx="16" fill="#2d2d44"/>
  <text x="900" y="450" fill="#fff" font-family="system-ui" font-size="16" font-weight="600">Export Data</text>
  <rect x="900" y="480" width="240" height="50" rx="8" fill="#4a5ee4"/>
  <text x="1020" y="512" text-anchor="middle" fill="#fff" font-family="system-ui" font-size="14">Download PDF</text>
</svg>
