<svg xmlns="http://www.w3.org/2000/svg" viewBox="0 0 1200 750" fill="none">
  <rect width="1200" height="750" fill="#1a1a2e"/>
  <rect x="0" y="0" width="80" height="750" fill="#2d2d44"/>
  <circle cx="40" cy="40" r="20" fill="#4a5ee4"/>
  <rect x="20" y="80" width="40" height="40" rx="8" fill="#3d3d54"/>
  <rect x="20" y="140" width="40" height="40" rx="8" fill="#3d3d54"/>
  <rect x="20" y="200" width="40" height="40" rx="8" fill="#3d3d54"/>
  <rect x="100" y="20" width="1080" height="80" rx="12" fill="#2d2d44"/>
  <circle cx="500" cy="300" r="120" fill="#4a5ee4" opacity="0.2"/>
  <circle cx="500" cy="300" r="90" fill="#4a5ee4" opacity="0.4"/>
  <circle cx="500" cy="300" r="60" fill="#4a5ee4" opacity="0.6"/>
  <text x="500" y="310" text-anchor="middle" fill="#fff" font-family="system-ui" font-size="32" font-weight="bold">92%</text>
  <rect x="700" y="140" width="460" height="160" rx="16" fill="#2d2d44"/>
  <rect x="700" y="320" width="460" height="160" rx="16" fill="#2d2d44"/>
  <rect x="100" y="500" width="350" height="230" rx="16" fill="#2d2d44"/>
  <rect x="470" y="500" width="350" height="230" rx="16" fill="#2d2d44"/>
  <rect x="840" y="500" width="340" height="230" rx="16" fill="#2d2d44"/>
  <text x="600" y="450" text-anchor="middle" fill="#4a5ee4" font-family="system-ui" font-size="16">Visual Dashboard</text>
</svg>
