<svg xmlns="http://www.w3.org/2000/svg" viewBox="0 0 1200 750" fill="none">
  <rect width="1200" height="750" fill="#1a1a2e"/>
  <rect x="0" y="0" width="200" height="750" fill="#2d2d44"/>
  <rect x="20" y="20" width="160" height="30" rx="4" fill="#3d3d54"/>
  <rect x="20" y="70" width="160" height="20" rx="4" fill="#3d3d54"/>
  <rect x="20" y="100" width="160" height="20" rx="4" fill="#3d3d54"/>
  <rect x="20" y="130" width="160" height="20" rx="4" fill="#3d3d54"/>
  <rect x="220" y="20" width="960" height="60" rx="8" fill="#2d2d44"/>
  <rect x="220" y="100" width="470" height="300" rx="8" fill="#2d2d44"/>
  <rect x="710" y="100" width="470" height="300" rx="8" fill="#2d2d44"/>
  <rect x="220" y="420" width="960" height="150" rx="8" fill="#2d2d44"/>
  <rect x="240" y="440" width="920" height="20" rx="2" fill="#3d3d54"/>
  <rect x="240" y="470" width="920" height="20" rx="2" fill="#3d3d54"/>
  <rect x="240" y="500" width="920" height="20" rx="2" fill="#3d3d54"/>
  <rect x="240" y="530" width="920" height="20" rx="2" fill="#3d3d54"/>
  <rect x="220" y="590" width="310" height="140" rx="8" fill="#2d2d44"/>
  <rect x="545" y="590" width="310" height="140" rx="8" fill="#2d2d44"/>
  <rect x="870" y="590" width="310" height="140" rx="8" fill="#2d2d44"/>
  <text x="700" y="380" text-anchor="middle" fill="#666" font-family="system-ui" font-size="16">Dense Data Tables</text>
</svg>
